<?xml version="1.0" ?><svg data-name="Layer 1" id="Layer_1" viewBox="0 0 47.64355 74.5" xmlns="http://www.w3.org/2000/svg"><defs><style>.cls-1{fill:none;}</style></defs><title/><rect class="cls-1" height="56.70801" width="44.64355" x="1.5" y="6.2832"/><path class="cls-1" d="M49.85352,80.21387a1.16162,1.16162,0,1,0,1.16162,1.16162A1.16321,1.16321,0,0,0,49.85352,80.21387Z" transform="translate(-26.03174 -12.75)"/><path class="cls-1" d="M72.10248,17.5332A4.00388,4.00388,0,0,0,68.17236,14.25H31.53418a4.00325,4.00325,0,0,0-3.92963,3.2832Z" transform="translate(-26.03174 -12.75)"/><path class="cls-1" d="M27.53174,77.24121v4.50586A4.00729,4.00729,0,0,0,31.53418,85.75H68.17236a4.00771,4.00771,0,0,0,4.00293-4.00293V77.24121Zm22.32178,6.2959a2.16162,2.16162,0,1,1,2.16162-2.16162A2.16421,2.16421,0,0,1,49.85352,83.53711Z" transform="translate(-26.03174 -12.75)"/><path d="M68.17236,12.75H31.53418a5.50893,5.50893,0,0,0-5.50244,5.50293V81.74707A5.50893,5.50893,0,0,0,31.53418,87.25H68.17236a5.50935,5.50935,0,0,0,5.50293-5.50293V18.25293A5.50935,5.50935,0,0,0,68.17236,12.75Zm-36.63818,1.5H68.17236a4.00388,4.00388,0,0,1,3.93012,3.2832H27.60455A4.00325,4.00325,0,0,1,31.53418,14.25Zm40.64111,4.7832v56.708H27.53174V19.0332ZM68.17236,85.75H31.53418a4.00729,4.00729,0,0,1-4.00244-4.00293V77.24121H72.17529v4.50586A4.00771,4.00771,0,0,1,68.17236,85.75Z" transform="translate(-26.03174 -12.75)"/><path d="M49.85352,79.21387a2.16162,2.16162,0,1,0,2.16162,2.16162A2.1642,2.1642,0,0,0,49.85352,79.21387Zm0,3.32324a1.16162,1.16162,0,1,1,1.16162-1.16162A1.16322,1.16322,0,0,1,49.85352,82.53711Z" transform="translate(-26.03174 -12.75)"/></svg>